<svg width="140" height="137" viewBox="0 0 140 137" fill="none" xmlns="http://www.w3.org/2000/svg">
<rect x="3.5" y="8.5" width="116" height="109" stroke="#E5DDDD" stroke-width="7"/>
<rect x="20.5" y="24.5" width="116" height="109" stroke="#E9DDDD" stroke-width="7"/>
<path d="M42.8 63.4V91.4C42.8 97.3333 45.4 100.3 50.6 100.3H56.3V105.6H50.6C45.6 105.6 41.9333 104.467 39.6 102.2C37.2667 99.8667 36.1 96.2667 36.1 91.4V47.1C36.1 45.9 35.8667 44.9333 35.4 44.2C35 43.4 34.2 42.5 33 41.5L37.5 37.5C39.5 38.6333 40.8667 39.9333 41.6 41.4C42.4 42.8 42.8 44.7667 42.8 47.3V58H56.3V63.4H42.8ZM107.748 96.5C107.748 97.7 107.948 98.7 108.348 99.5C108.814 100.233 109.648 101.1 110.848 102.1L106.448 106.1C104.781 105.167 103.548 103.967 102.748 102.5C101.948 100.967 101.481 99.4 101.348 97.8C97.881 103.333 92.581 106.1 85.4477 106.1C81.3143 106.1 77.681 105.167 74.5477 103.3C71.481 101.367 69.081 98.6667 67.3477 95.2C65.681 91.7333 64.8477 87.7 64.8477 83.1V79.9C64.8477 75.3 65.681 71.2667 67.3477 67.8C69.081 64.3333 71.481 61.6667 74.5477 59.8C77.681 57.8667 81.3143 56.9 85.4477 56.9C88.8477 56.9 91.881 57.5667 94.5477 58.9C97.281 60.2333 99.4477 62.1333 101.048 64.6V42.2C101.048 41 100.848 40.0333 100.448 39.3C100.048 38.5667 99.2143 37.6333 97.9477 36.5L102.548 32.6C104.481 33.6667 105.814 34.9333 106.548 36.4C107.348 37.8667 107.748 39.8667 107.748 42.4V96.5ZM101.048 73.1C99.9143 69.5 98.181 66.8 95.8477 65C93.5143 63.2 90.4143 62.3 86.5477 62.3C82.0143 62.3 78.381 63.9 75.6477 67.1C72.9143 70.3 71.5477 74.5667 71.5477 79.9V83.1C71.5477 88.4333 72.9143 92.7 75.6477 95.9C78.381 99.1 82.0143 100.7 86.5477 100.7C90.4143 100.7 93.5143 99.8 95.8477 98C98.181 96.2 99.9143 93.5 101.048 89.9V73.1Z" fill="#E9DDDD"/>
</svg>
